HIERARCHY
ROOT Hips
{
    OFFSET 0.000000 0.000000 0.000000
    CHANNELS 6 Xposition Yposition Zposition Zrotation Xrotation Yrotation
    JOINT Spine
    {
        OFFSET -0.000000 7.236184 0.000000
        CHANNELS 3 Zrotation Xrotation Yrotation
        JOINT Spine1
        {
            OFFSET -0.000000 20.420147 0.000000
            CHANNELS 3 Zrotation Xrotation Yrotation
            JOINT Neck
            {
                OFFSET -0.000000 20.336288 1.848754
                CHANNELS 3 Zrotation Xrotation Yrotation
                JOINT Head
                {
                    OFFSET -0.000000 12.354461 -1.764923
                    CHANNELS 3 Zrotation Xrotation Yrotation
                    End Site
                    {
                        OFFSET -0.000000 22.061537 0.000000
                    }
                }
            }
            JOINT LeftShoulder
            {
                OFFSET 3.573296 18.396038 -0.314103
                CHANNELS 3 Zrotation Xrotation Yrotation
                JOINT LeftArm
                {
                    OFFSET 10.880760 0.000000 0.000000
                    CHANNELS 3 Zrotation Xrotation Yrotation
                    JOINT LeftForeArm
                    {
                        OFFSET 27.185530 0.000000 0.000000
                        CHANNELS 3 Zrotation Xrotation Yrotation
                        JOINT LeftHand
                        {
                            OFFSET 27.825975 0.000000 0.000000
                            CHANNELS 3 Zrotation Xrotation Yrotation
                            End Site
                            {
                                OFFSET 13.236923 0.000000 0.000000
                            }
                        }
                    }
                }
            }
            JOINT RightShoulder
            {
                OFFSET -3.474926 18.396038 -0.314103
                CHANNELS 3 Zrotation Xrotation Yrotation
                JOINT RightArm
                {
                    OFFSET -10.880760 0.000000 0.000000
                    CHANNELS 3 Zrotation Xrotation Yrotation
                    JOINT RightForeArm
                    {
                        OFFSET -27.185530 0.000000 0.000000
                        CHANNELS 3 Zrotation Xrotation Yrotation
                        JOINT RightHand
                        {
                            OFFSET -27.825975 0.000000 0.000000
                            CHANNELS 3 Zrotation Xrotation Yrotation
                            End Site
                            {
                                OFFSET -13.236923 0.000000 0.000000
                            }
                        }
                    }
                }
            }
        }
    }
    JOINT LeftUpLeg
    {
        OFFSET 8.824615 0.000000 0.000000
        CHANNELS 3 Zrotation Xrotation Yrotation
        JOINT LeftLeg
        {
            OFFSET -0.000000 -35.111282 0.000000
            CHANNELS 3 Zrotation Xrotation Yrotation
            JOINT LeftFoot
            {
                OFFSET -0.000000 -42.324711 0.000000
                CHANNELS 3 Zrotation Xrotation Yrotation
                JOINT LeftToeBase
                {
                    OFFSET -0.000000 -5.735999 13.236923
                    CHANNELS 3 Zrotation Xrotation Yrotation
                    End Site
                    {
                        OFFSET -0.000000 0.000000 3.529846
                    }
                }
            }
        }
    }
    JOINT RightUpLeg
    {
        OFFSET -8.824615 0.000000 0.000000
        CHANNELS 3 Zrotation Xrotation Yrotation
        JOINT RightLeg
        {
            OFFSET -0.000000 -35.111282 0.000000
            CHANNELS 3 Zrotation Xrotation Yrotation
            JOINT RightFoot
            {
                OFFSET -0.000000 -42.324711 0.000000
                CHANNELS 3 Zrotation Xrotation Yrotation
                JOINT RightToeBase
                {
                    OFFSET -0.000000 -5.735999 13.236923
                    CHANNELS 3 Zrotation Xrotation Yrotation
                    End Site
                    {
                        OFFSET -0.000000 0.000000 3.529846
                    }
                }
            }
        }
    }
}
MOTION
Frames:    7
Frame Time:    0.008333
-1.381344    81.345467    100.529503    -0.308652    -3.406067    -176.649857    -1.433816    -13.800128    0.614268    0.392161    6.195229    0.766643    2.215784    5.641014    -3.575222    5.841135    3.671841    -3.290300    0.890870    18.046618    -3.218928    -41.630585    48.429306    -42.721214    -0.030862    0.501603    -19.021927    19.675428    0.585881    0.515957    6.535761    19.515800    -3.446614    37.245850    46.891823    42.794518    0.499783    -4.811629    17.521212    -14.187401    -4.451753    -3.519629    3.201335    -6.524827    0.396270    -2.185915    9.390595    -0.407251    -0.512056    -5.957365    -6.942226    0.076454    0.282861    -0.084703    -3.946373    -2.860861    4.733866    3.695979    4.508999    3.872094    -2.045868    -5.597897    -13.040820    0.177738    -5.519680    -0.193766    
-1.387762    81.346733    100.539108    -0.305001    -3.404514    -176.674057    -1.432439    -13.793342    0.601623    0.423930    6.194191    0.751935    2.235923    5.644916    -3.572127    5.794664    3.706662    -3.295893    0.891237    18.061638    -3.219768    -41.727211    48.410770    -42.642750    -0.183379    0.167384    -18.945177    19.642490    0.252056    0.666595    6.539724    19.502300    -3.460299    37.257370    46.878540    42.774563    0.487813    -4.790874    17.534786    -14.156650    -4.431788    -3.506451    3.203568    -6.528637    0.400320    -2.189692    9.394850    -0.393434    -0.506504    -5.958923    -6.937299    0.080758    0.278554    -0.089472    -3.941355    -2.883813    4.760158    3.692865    4.545299    3.894183    -2.083311    -5.648665    -13.060030    0.162079    -5.877779    -0.176791    
-1.394302    81.348038    100.548027    -0.302142    -3.404870    -176.699921    -1.431052    -13.788211    0.588158    0.456721    6.192906    0.736499    2.255025    5.647225    -3.569307    5.748999    3.741759    -3.301600    0.891438    18.076736    -3.219608    -41.829021    48.392429    -42.557426    -0.341501    -0.183845    -18.864607    19.615223    -0.098950    0.821538    6.543596    19.487848    -3.474288    37.270924    46.864872    42.752335    0.476282    -4.770833    17.547554    -14.126054    -4.412334    -3.495442    3.205405    -6.533445    0.406934    -2.193934    9.399051    -0.380925    -0.501090    -5.960877    -6.932191    0.084806    0.274737    -0.093957    -3.937569    -2.908674    4.787639    3.690525    4.582059    3.917488    -2.123273    -5.697669    -13.082638    0.141732    -6.228719    -0.154678    
-1.400669    81.349281    100.555885    -0.298607    -3.405002    -176.726990    -1.428183    -13.783200    0.574230    0.490667    6.191842    0.720320    2.272563    5.648621    -3.566680    5.704943    3.775361    -3.307105    0.891566    18.091911    -3.218995    -41.935829    48.373295    -42.465981    -0.501207    -0.545498    -18.780746    19.589108    -0.460152    0.974817    6.547284    19.472980    -3.488478    37.285751    46.850628    42.728470    0.465440    -4.751892    17.559204    -14.096407    -4.393781    -3.486568    3.209127    -6.536997    0.417021    -2.199325    9.403263    -0.371485    -0.495720    -5.963428    -6.926438    0.088612    0.270895    -0.098175    -3.932727    -2.932598    4.815684    3.687921    4.618196    3.940700    -2.165078    -5.743878    -13.107352    0.116313    -6.566578    -0.127003    
-1.406949    81.350510    100.562904    -0.294710    -3.405282    -176.755386    -1.423996    -13.778406    0.559644    0.525933    6.190961    0.703264    2.288327    5.649125    -3.564055    5.662797    3.807110    -3.312113    0.891453    18.107092    -3.217500    -42.048946    48.352058    -42.368046    -0.661686    -0.915282    -18.692438    19.562658    -0.830425    1.124570    6.550794    19.457424    -3.502671    37.301929    46.835892    42.702892    0.455062    -4.734303    17.569389    -14.067934    -4.376330    -3.479660    3.214513    -6.539831    0.430178    -2.206273    9.407539    -0.364962    -0.490479    -5.966433    -6.919610    0.092167    0.267433    -0.102114    -3.927329    -2.956351    4.843926    3.685257    4.654204    3.964713    -2.208170    -5.787427    -13.135073    0.084996    -6.892060    -0.092852    
-1.413112    81.351669    100.569031    -0.291145    -3.405917    -176.784576    -1.419074    -13.773970    0.544616    0.561909    6.190148    0.685702    2.302314    5.649284    -3.561270    5.622855    3.835341    -3.316367    0.891189    18.121929    -3.215299    -42.167568    48.327904    -42.264919    -0.818848    -1.282436    -18.601389    19.538759    -1.198505    1.266846    6.554099    19.441587    -3.516402    37.319157    46.820915    42.675781    0.445124    -4.718556    17.577955    -14.041385    -4.360521    -3.474727    3.220732    -6.542034    0.445223    -2.214689    9.411583    -0.360484    -0.485562    -5.969772    -6.911934    0.095403    0.264080    -0.105701    -3.922410    -2.979649    4.871757    3.682960    4.689317    3.989797    -2.252632    -5.827213    -13.166641    0.047915    -7.197558    -0.052365    
-1.419055    81.352737    100.574196    -0.287446    -3.406041    -176.814362    -1.412986    -13.769188    0.529311    0.598788    6.189678    0.667559    2.314445    5.648928    -3.558264    5.585236    3.859727    -3.319735    0.890738    18.136343    -3.212118    -42.290592    48.300808    -42.157799    -0.971315    -1.642836    -18.508881    19.519451    -1.560180    1.401299    6.557227    19.425314    -3.529892    37.337173    46.805874    42.647312    0.435535    -4.704567    17.584818    -14.016586    -4.346195    -3.471527    3.228689    -6.542497    0.461392    -2.225211    9.415047    -0.357357    -0.481206    -5.973393    -6.903522    0.098333    0.261134    -0.108948    -3.917111    -3.001442    4.898469    3.680570    4.723100    4.014923    -2.296716    -5.863103    -13.200609    0.004975    -7.482604    -0.005432    
